<svg xmlns="http://www.w3.org/2000/svg" xmlns:svg="http://www.w3.org/2000/svg" id="svg105" width="900" height="451" version="1.1" viewBox="0 0 238.125 119.327"><defs id="defs99"><rect id="rect103" width="203.858" height="89.316" x="97.787" y="4.731"/><rect id="rect271" width="186.088" height="63.526" x="89.527" y="97.052"/><rect id="rect265" width="21.138" height="75.581" x="114.145" y="208.233"/><rect id="rect259" width="109.521" height="79.135" x="93.875" y="100.402"/><rect id="rect253" width="109.701" height="87.216" x="98.685" y="97.557"/></defs><metadata id="metadata102"/><g id="layer1"><g id="g12" transform="matrix(0.26458333,0,0,0.26458333,1.9985468,5.8745789)"><g id="g10"><g id="g4"><polygon id="polygon2" fill="#ff6a00" points="134.498 116.059 54.409 116.059 15.258 84.044 15.258 176.657 92.518 253.916 166.515 179.925 166.515 84.044"/></g><g id="g8"><path id="path6" fill="#491d00" d="M 92.518,260.987 10.258,178.728 V 73.496 l 45.935,37.562 h 76.233 l 39.088,-39.085 v 110.022 z m -72.26,-86.401 72.26,72.259 68.997,-68.991 v -81.74 l -24.947,24.944 H 52.625 L 20.258,94.592 Z"/></g></g></g><g id="g24" transform="matrix(0.26458333,0,0,0.26458333,1.9985468,5.8745789)"><g id="g22"><g id="g16"><polygon id="polygon14" fill="#fff" points="24.205 183.536 61.743 183.149 78.76 238.091"/></g><g id="g20"><path id="path18" fill="#491d00" d="m 58.069,188.188 9.936,32.076 -31.851,-31.851 21.915,-0.225 m 7.348,-10.077 -53.16,0.548 77.26,77.259 z"/></g></g></g><g id="g36" transform="matrix(0.26458333,0,0,0.26458333,1.9985468,5.8745789)"><g id="g34"><g id="g28"><polygon id="polygon26" fill="#fff" points="121.078 186.152 158.616 186.539 104.061 241.094"/></g><g id="g32"><path id="path30" fill="#491d00" d="m 124.752,191.19 21.916,0.226 -31.851,31.851 9.935,-32.077 m -7.348,-10.076 -24.1,77.807 77.26,-77.259 z"/></g></g></g><g id="g48" transform="matrix(0.26458333,0,0,0.26458333,1.9985468,5.8745789)"><g id="g46"><g id="g40"><polygon id="polygon38" fill="#ff6a00" points="166.313 208.402 212.895 233.876 228.875 260.853 228.875 402.406 218.884 402.406 194.455 309.722 140.63 309.722 111.534 402.406 102.212 402.406 102.212 317.623 80.877 317.623 80.877 402.406 73.358 402.406 34.411 303.307 34.411 226.095 91.518 283.196"/></g><g id="g44"><path id="path42" fill="#491d00" d="m 167.111,213.968 42.541,23.265 14.723,24.854 v 135.82 h -2.023 l -22.662,-85.979 -1.768,-6.706 h -6.935 -47.053 -6.608 l -1.979,6.305 -27.117,86.38 h -1.518 v -75.783 -9 h -9 -12.335 -9 v 9 75.662 L 38.911,302.455 v -65.496 l 46.243,46.238 6.364,6.363 6.364,-6.363 69.229,-69.229 m -1.596,-11.131 -73.997,73.995 -61.606,-61.601 v 88.928 l 40.38,102.747 h 15.085 v -84.783 h 12.335 v 84.783 h 17.126 l 29.096,-92.685 h 47.053 l 24.43,92.685 h 17.958 V 259.62 l -17.238,-29.1 z"/></g></g></g><g id="g60" transform="matrix(0.26458333,0,0,0.26458333,1.9985468,5.8745789)"><g id="g58"><g id="g52"><polygon id="polygon50" fill="#ff6a00" points="241.617 190.828 187.059 139.659 187.059 71.278 228.585 34.447 326.972 18.05 331.281 26.667 272.353 67.356 272.353 111.446 311.244 185.761 239.729 243.142 228.38 223.065"/></g><g id="g56"><path id="path54" fill="#491d00" d="m 324.151,23.589 0.716,1.431 -53.197,36.732 -4.318,2.981 v 5.247 40.236 2.458 l 1.14,2.179 36.415,69.582 -63.72,51.125 -7.26,-12.843 11.005,-26.803 2.618,-6.376 -5.028,-4.716 -50.464,-47.33 V 73.526 l 38.767,-34.384 93.326,-15.553 m 5.641,-11.078 -103.448,17.241 -44.285,39.277 v 72.795 l 53.623,50.293 -12.849,31.295 15.438,27.31 79.311,-63.635 -40.229,-76.87 V 69.98 l 60.343,-41.666 z"/></g></g></g><g id="g72" transform="matrix(0.26458333,0,0,0.26458333,1.9985468,5.8745789)"><g id="g70"><g id="g64"><polygon id="polygon62" fill="#fff" points="196.31 63.073 228.585 34.447 326.972 18.05 331.281 26.667 272.353 67.356 272.353 96.663 257.101 78.805 229.897 81.57 232.795 60.654"/></g><g id="g68"><path id="path66" fill="#491d00" d="m 324.151,23.589 0.716,1.431 -53.197,36.732 -4.318,2.981 v 5.247 13.129 l -4.748,-5.56 -3.403,-3.984 -5.212,0.529 -18.265,1.857 1.182,-8.529 1.686,-12.163 -12.252,0.812 -15.779,1.047 20.267,-17.976 93.323,-15.553 M 329.792,12.511 226.344,29.752 182.059,69.029 227,66.05 224.071,87.189 255,84.044 277.353,110.217 V 69.98 l 60.343,-41.666 z"/></g></g></g><g id="g76" transform="matrix(0.26458333,0,0,0.26458333,1.9985468,5.8745789)"><polygon id="polygon74" fill="#491d00" points="227 400.05 221 400.05 213 363.05 227 363.05"/></g><g id="g80" transform="matrix(0.26458333,0,0,0.26458333,1.9985468,5.8745789)"><polygon id="polygon78" fill="#491d00" points="113 400.05 103 400.05 103 363.05 123 363.05"/></g><g id="g84" transform="matrix(0.26458333,0,0,0.26458333,1.9985468,5.8745789)"><polygon id="polygon82" fill="#491d00" points="80 400.05 74 400.05 60 363.05 80 363.05"/></g><g id="g88" transform="matrix(0.26458333,0,0,0.26458333,1.9985468,5.8745789)"><polygon id="polygon86" fill="#491d00" points="93.798 255.05 89.925 255.05 75.723 239.05 108 239.05"/></g><text style="font-style:normal;font-variant:normal;font-weight:700;font-stretch:normal;font-size:19.7556px;line-height:1.25;font-family:Quicksand;-inkscape-font-specification:'Quicksand Bold';white-space:pre;shape-inside:url(#rect259);fill:#491d00;fill-opacity:1;stroke:none" id="text257" xml:space="preserve"><tspan style="visibility:hidden" x="93.875" y="222.635"><tspan dx="0 32.516 27.196 26.737 30.452" style="font-size:45.8611px">HEPHY</tspan></tspan></text><g id="text101" aria-label="HEPHY" transform="translate(-9.227473,27.161156)" style="font-style:normal;font-variant:normal;font-weight:700;font-stretch:normal;font-size:45.8611px;line-height:1.25;font-family:Quicksand;-inkscape-font-specification:'Quicksand Bold';white-space:pre;shape-inside:url(#rect103);fill:#491d00;fill-opacity:1;stroke:none"><path id="path111" d="m 105.07902,47.828496 c 1.4217,0 2.56823,-1.100667 2.56823,-2.522361 V 34.299471 h 11.87802 v 11.006664 c 0,1.421694 1.10067,2.522361 2.52236,2.522361 1.42169,0 2.56822,-1.100667 2.56822,-2.522361 V 18.248087 c 0,-1.421694 -1.14653,-2.522361 -2.56822,-2.522361 -1.42169,0 -2.52236,1.100667 -2.52236,2.522361 V 29.254751 H 107.64725 V 18.248087 c 0,-1.421694 -1.14653,-2.522361 -2.56823,-2.522361 -1.42169,0 -2.52236,1.100667 -2.52236,2.522361 v 27.058048 c 0,1.421694 1.10067,2.522361 2.52236,2.522361 z"/><path id="path113" d="m 137.59453,47.828496 c 0,0 0.0459,-0.04586 0.0459,-0.04586 0,0 0,0.04586 0.0917,0.04586 h 14.859 c 1.32997,0 2.52236,-1.146528 2.52236,-2.522361 0,-1.421694 -1.19239,-2.568221 -2.52236,-2.568221 h -12.42836 v -8.438443 h 10.68563 c 1.37584,0 2.52237,-1.146527 2.52237,-2.568221 0,-1.329972 -1.14653,-2.522361 -2.52237,-2.522361 h -10.68563 v -8.392581 h 12.42836 c 1.32997,0 2.52236,-1.146527 2.52236,-2.568221 0,-1.421694 -1.19239,-2.522361 -2.52236,-2.522361 h -14.859 c -0.0917,0 -0.0917,0 -0.0917,0 0,0 -0.0459,0 -0.0459,0 -1.4217,0 -2.52236,1.100667 -2.52236,2.522361 v 27.058048 c 0,1.375833 1.10066,2.522361 2.52236,2.522361 z"/><path id="path115" d="m 182.85936,25.585863 c 0,-5.457471 -4.40266,-9.860137 -9.86013,-9.860137 h -8.16328 c 0,0 0,0 0,0 0,0 -0.0459,0 -0.0459,0 -1.37583,0 -2.52236,1.100667 -2.52236,2.522361 v 27.058048 c 0,1.375833 1.14653,2.522361 2.52236,2.522361 1.4217,0 2.56822,-1.146528 2.56822,-2.522361 v -9.951858 h 5.64092 c 5.45747,0 9.86013,-4.402666 9.86013,-9.768414 z m -15.50105,-4.769555 h 5.64092 c 2.65994,0 4.72369,2.109611 4.76955,4.769555 -0.0459,2.568221 -2.10961,4.677832 -4.76955,4.677832 h -5.64092 z"/><path id="path117" d="m 191.52703,47.828496 c 1.42169,0 2.56822,-1.100667 2.56822,-2.522361 V 34.299471 h 11.87803 v 11.006664 c 0,1.421694 1.10066,2.522361 2.52236,2.522361 1.42169,0 2.56822,-1.100667 2.56822,-2.522361 V 18.248087 c 0,-1.421694 -1.14653,-2.522361 -2.56822,-2.522361 -1.4217,0 -2.52236,1.100667 -2.52236,2.522361 V 29.254751 H 194.09525 V 18.248087 c 0,-1.421694 -1.14653,-2.522361 -2.56822,-2.522361 -1.42169,0 -2.52236,1.100667 -2.52236,2.522361 v 27.058048 c 0,1.421694 1.10067,2.522361 2.52236,2.522361 z"/><path id="path119" d="m 241.24044,16.551226 c -1.10066,-0.8255 -2.65994,-0.596194 -3.5313,0.550333 l -7.84225,10.731497 -7.84225,-10.731497 c -0.77964,-1.146527 -2.33891,-1.375833 -3.48544,-0.550333 -1.14653,0.8255 -1.37583,2.384777 -0.50447,3.485444 l 9.3098,12.886969 v 12.382496 c 0,1.421694 1.19239,2.522361 2.52236,2.522361 1.42169,0 2.52236,-1.100667 2.52236,-2.522361 V 32.923639 l 9.40153,-12.886969 c 0.77964,-1.100667 0.55033,-2.659944 -0.55034,-3.485444 z"/></g><g id="text109" aria-label="lazy-smart PaaS abstraction" transform="translate(-1.7349439,6.9772988)" style="font-style:normal;font-variant:normal;font-weight:400;font-stretch:normal;font-size:12.7px;line-height:1.25;font-family:'EB Garamond';-inkscape-font-specification:'EB Garamond';fill:#491d00;fill-opacity:1;stroke:none;stroke-width:.264583"><path style="font-style:normal;font-variant:normal;font-weight:400;font-stretch:normal;font-family:'EB Garamond';-inkscape-font-specification:'EB Garamond';fill:#491d00;fill-opacity:1;stroke-width:.264583" id="path122" d="m 96.283566,76.107206 q 0,-0.1651 -0.1397,-0.3302 -0.127,-0.1651 -0.3556,-0.254 -0.2921,-0.1016 -0.2921,-0.2921 0,-0.2159 0.3683,-0.2667 0.2159,-0.0381 0.5207,-0.1143 0.3175,-0.0762 0.5334,-0.127 0.2159,-0.0635 0.2667,-0.0635 0.1016,0 0.127,0.0762 0.0254,0.0635 0.0254,0.2667 v 6.934199 q 0,0.2667 0.1143,0.508 0.127,0.2286 0.3683,0.3048 0.5461,0.1651 0.5461,0.3302 0,0.254 -0.4318,0.254 -0.1524,0 -0.5969,-0.0381 -0.4318,-0.0381 -0.5207,-0.0381 -0.127,0 -0.5588,0.0381 -0.4318,0.0381 -0.5715,0.0381 -0.4445,0 -0.4445,-0.254 0,-0.1651 0.5588,-0.3302 0.2413,-0.0762 0.3556,-0.3048 0.127,-0.2413 0.127,-0.508 z"/><path style="font-style:normal;font-variant:normal;font-weight:400;font-stretch:normal;font-family:'EB Garamond';-inkscape-font-specification:'EB Garamond';fill:#491d00;fill-opacity:1;stroke-width:.264583" id="path124" d="m 99.966554,81.644405 q 0,0.9144 0.749296,0.9144 0.2921,0 0.5334,-0.127 0.254,-0.1397 0.254,-0.3556 v -1.193799 q 0,-0.1905 -0.2921,-0.0889 l -0.6096,0.2413 q -0.634996,0.203199 -0.634996,0.609599 z m 0.939796,-3.797299 q 0.7747,0 1.2192,0.381 0.4445,0.381 0.4445,0.9144 v 3.009899 q 0,0.1524 0.1397,0.254 0.1524,0.1016 0.3175,0.1016 0.1016,0 0.254,-0.0762 0.1651,-0.0889 0.2032,-0.0889 0.1143,0 0.1143,0.2794 0,0.3302 -0.3683,0.5588 -0.3683,0.2286 -0.7747,0.2286 -0.4953,0 -0.8763,-0.5207 -0.0635,-0.0889 -0.1016,-0.0889 -0.0254,-0.0127 -0.0889,0.0635 -0.5461,0.5461 -1.2954,0.5461 -0.469896,0 -0.863596,-0.3683 -0.3937,-0.381 -0.3937,-0.8509 0,-0.9017 0.6858,-1.193799 l 1.663696,-0.6985 q 0.2921,-0.127 0.2921,-0.2921 v -0.6223 q 0,-0.3175 -0.2921,-0.5461 -0.2921,-0.2286 -0.635,-0.2286 -0.2286,0 -0.4064,0.1016 -0.177796,0.0889 -0.177796,0.2667 0,0.4064 -0.127,0.4953 -0.0762,0.0508 -0.3556,0.1651 -0.2667,0.1016 -0.3556,0.1016 -0.1016,0 -0.1016,-0.4318 0,-0.2159 0.1397,-0.4699 0.1397,-0.254 0.3429,-0.3937 0.876296,-0.5969 1.396996,-0.5969 z"/><path style="font-style:normal;font-variant:normal;font-weight:400;font-stretch:normal;font-family:'EB Garamond';-inkscape-font-specification:'EB Garamond';fill:#491d00;fill-opacity:1;stroke-width:.264583" id="path126" d="m 104.81793,77.948706 q 0.0635,0 0.2794,0.0381 0.2159,0.0254 0.3556,0.0254 h 2.3876 q 0.3048,0 0.6223,-0.0254 0.3175,-0.0254 0.3556,-0.0254 0.1524,0 0.1524,0.2794 0,0.0635 -0.0889,0.1905 -0.0889,0.1143 -0.2413,0.2921 -0.1524,0.1651 -0.2286,0.2667 l -2.8448,3.543299 q -0.0635,0.1016 0,0.1397 0.0635,0.0381 0.2159,0.0381 h 1.5367 q 0.2794,0 0.4445,-0.0889 0.1651,-0.1016 0.4572,-0.4572 0.0889,-0.1016 0.2413,-0.3175 0.1524,-0.2159 0.2286,-0.3048 0.0889,-0.0889 0.1524,-0.0889 0.1778,0 0.1778,0.3175 0,0.4445 -0.254,1.0033 -0.2413,0.5588 -0.3937,0.5588 -0.2032,0 -0.7874,-0.0381 -0.5842,-0.0381 -0.9779,-0.0381 -0.3302,0 -1.0414,0.0381 -0.7112,0.0381 -1.1684,0.0381 -0.1524,0 -0.2794,-0.1016 -0.127,-0.1016 -0.127,-0.2159 0,-0.1651 0.3683,-0.635 l 2.8321,-3.517899 q 0.127,-0.1524 0.1143,-0.1905 -0.0127,-0.0381 -0.1651,-0.0381 h -1.5748 q -0.2667,0 -0.4318,0.1016 -0.1524,0.0889 -0.3556,0.381 -0.254,0.3429 -0.4064,0.3429 -0.1905,0 -0.1905,-0.2794 0,-0.3302 0.2286,-0.7747 0.2286,-0.4572 0.4064,-0.4572 z"/><path style="font-style:normal;font-variant:normal;font-weight:400;font-stretch:normal;font-family:'EB Garamond';-inkscape-font-specification:'EB Garamond';fill:#491d00;fill-opacity:1;stroke-width:.264583" id="path128" d="m 111.61242,82.863605 -1.4224,-3.581399 q -0.2794,-0.7239 -0.4953,-0.8001 -0.4191,-0.1397 -0.4191,-0.2921 0,-0.254 0.3048,-0.254 0.0889,0 0.3937,0.0381 0.3175,0.0381 0.4191,0.0381 0.0889,0 0.4572,-0.0381 0.3683,-0.0381 0.4572,-0.0381 0.1397,0 0.2286,0.0762 0.0889,0.0762 0.0889,0.1778 0,0.1778 -0.4318,0.3175 -0.0508,0.0127 -0.0762,0.1143 -0.0254,0.0889 0.0127,0.1905 l 1.0287,2.590799 q 0.1143,0.3048 0.2159,0.0381 l 0.8382,-2.209799 q 0.127,-0.3175 0.127,-0.5207 0,-0.0889 -0.0762,-0.1524 -0.0762,-0.0635 -0.1397,-0.0762 -0.3556,-0.0762 -0.3556,-0.2921 0,-0.1016 0.0889,-0.1778 0.0889,-0.0762 0.2286,-0.0762 0.0889,0 0.3429,0.0381 0.254,0.0381 0.3556,0.0381 0.1016,0 0.3048,-0.0381 0.2032,-0.0381 0.3048,-0.0381 0.3048,0 0.3048,0.254 0,0.1524 -0.4318,0.2921 -0.3175,0.1143 -0.5461,0.7239 l -2.4511,6.464299 q -0.1143,0.3175 -0.4318,0.635 -0.3048,0.3175 -0.6985,0.3175 -0.2921,0 -0.4699,-0.2286 -0.1778,-0.2159 -0.1778,-0.4953 0,-0.2794 0.2286,-0.4953 0.2413,-0.2159 0.5334,-0.2159 0.635,0 0.9017,-0.5461 0.5207,-1.1049 0.5207,-1.4605 0,-0.1651 -0.0635,-0.3175 z"/><path style="font-style:normal;font-variant:normal;font-weight:400;font-stretch:normal;font-family:'EB Garamond';-inkscape-font-specification:'EB Garamond';fill:#491d00;fill-opacity:1;stroke-width:.264583" id="path130" d="m 118.62281,79.866406 q 0.3937,-0.0254 0.3937,0.3556 0,0.2413 -0.1143,0.4318 -0.1016,0.1778 -0.3048,0.1905 l -2.7813,0.2286 q -0.6858,0.0635 -0.6858,-0.2413 0,-0.2286 0.1143,-0.4572 0.127,-0.2413 0.3556,-0.2667 z"/><path style="font-style:normal;font-variant:normal;font-weight:400;font-stretch:normal;font-family:'EB Garamond';-inkscape-font-specification:'EB Garamond';fill:#491d00;fill-opacity:1;stroke-width:.264583" id="path132" d="m 121.5311,77.847106 q 0.3429,0 1.0668,0.3048 0.0889,0.0381 0.1397,0.2032 0.0635,0.2286 0.0635,0.6223 0,0.2794 -0.1524,0.2794 -0.2794,0 -0.381,-0.3175 -0.0635,-0.2286 -0.3175,-0.3683 -0.2413,-0.1397 -0.5461,-0.1397 -0.2413,0 -0.4191,0.1651 -0.1651,0.1524 -0.1651,0.381 0,0.1651 0.0889,0.3175 0.0889,0.1524 0.1778,0.2413 0.0889,0.0762 0.2794,0.2159 l 1.0414,0.7874 q 0.6096,0.4572 0.6096,1.015999 0,0.8001 -0.5588,1.3335 -0.5588,0.5207 -1.3589,0.5207 -0.5842,0 -0.8382,-0.1016 -0.127,-0.0508 -0.1651,-0.0635 -0.0254,-0.0127 -0.0762,-0.0635 -0.0508,-0.0508 -0.0762,-0.127 -0.2159,-0.5588 -0.2159,-0.8001 0,-0.4064 0.1397,-0.4064 0.3302,0 0.5588,0.508 0.2286,0.4826 0.9779,0.4826 0.3048,0 0.5207,-0.1778 0.2286,-0.1778 0.2286,-0.4572 0,-0.0889 -0.0127,-0.1651 0,-0.0762 -0.0254,-0.1524 -0.0254,-0.0762 -0.0381,-0.1143 -0.0127,-0.0508 -0.0635,-0.1016 -0.0508,-0.0635 -0.0635,-0.0889 -0.0127,-0.0254 -0.0889,-0.0762 -0.0762,-0.0635 -0.0889,-0.0762 0,-0.0127 -0.1016,-0.0762 l -0.0889,-0.0635 -0.6096,-0.431799 q -0.3556,-0.254 -0.5461,-0.4191 -0.1905,-0.1651 -0.3556,-0.4318 -0.1651,-0.2667 -0.1651,-0.5715 0,-0.6477 0.4826,-1.1176 0.4826,-0.4699 1.143,-0.4699 z"/><path style="font-style:normal;font-variant:normal;font-weight:400;font-stretch:normal;font-family:'EB Garamond';-inkscape-font-specification:'EB Garamond';fill:#491d00;fill-opacity:1;stroke-width:.264583" id="path134" d="m 128.70659,78.621806 q 0.0508,0.0635 0.0889,0.0635 0.0381,0 0.4445,-0.3429 0.6096,-0.4953 1.5748,-0.4953 0.6604,0 1.1176,0.5334 0.4699,0.5207 0.4699,1.2319 v 2.298699 q 0,0.2794 0.1143,0.5207 0.127,0.2413 0.3683,0.3175 0.4572,0.1397 0.4572,0.3302 0,0.0762 -0.0127,0.127 -0.0127,0.0381 -0.1016,0.0889 -0.0762,0.0381 -0.2286,0.0381 -0.1524,0 -0.5969,-0.0381 -0.4318,-0.0381 -0.5207,-0.0381 -0.127,0 -0.4699,0.0381 -0.3302,0.0381 -0.4699,0.0381 -0.381,0 -0.381,-0.254 0,-0.1778 0.4953,-0.3302 0.2921,-0.0762 0.2921,-0.8128 v -1.943099 q 0,-0.5842 -0.3175,-1.0287 -0.3048,-0.4572 -0.7874,-0.4572 -0.5715,0 -0.9144,0.3683 -0.3429,0.3683 -0.3429,1.0287 v 2.031999 q 0,0.7239 0.2921,0.8128 0.4826,0.1397 0.4826,0.3302 0,0.254 -0.3683,0.254 -0.1524,0 -0.4953,-0.0381 -0.3429,-0.0381 -0.4318,-0.0381 -0.1143,0 -0.4572,0.0381 -0.3429,0.0381 -0.4826,0.0381 -0.381,0 -0.381,-0.254 0,-0.1778 0.4953,-0.3302 0.2921,-0.0762 0.2921,-0.8128 v -1.943099 q 0,-0.5842 -0.3175,-1.0287 -0.3048,-0.4572 -0.7874,-0.4572 -0.5715,0 -0.9144,0.3556 -0.3302,0.3429 -0.3302,1.0414 l -0.0127,2.031999 q 0,0.7239 0.2921,0.8128 0.4826,0.1397 0.4826,0.3302 0,0.254 -0.3683,0.254 -0.1524,0 -0.4953,-0.0381 -0.3429,-0.0381 -0.4318,-0.0381 -0.127,0 -0.5588,0.0381 -0.4318,0.0381 -0.5715,0.0381 -0.381,0 -0.381,-0.254 0,-0.1778 0.4953,-0.3302 0.2413,-0.0762 0.3556,-0.3048 0.127,-0.2413 0.127,-0.508 v -2.463799 q 0,-0.1651 -0.1524,-0.3683 -0.1524,-0.2032 -0.3683,-0.2794 -0.2667,-0.1016 -0.2667,-0.2667 0,-0.1524 0.3683,-0.3175 0.127,-0.0635 0.6731,-0.2794 0.5588,-0.2159 0.6477,-0.2159 0.1016,0 0.127,0.0762 0.0254,0.0762 0.0254,0.2794 v 0.3175 q 0,0.1651 0.2032,-0.0254 0.0381,-0.0381 0.0508,-0.0508 0.6096,-0.4953 1.5748,-0.4953 0.8255,0 1.3081,0.7747 z"/><path style="font-style:normal;font-variant:normal;font-weight:400;font-stretch:normal;font-family:'EB Garamond';-inkscape-font-specification:'EB Garamond';fill:#491d00;fill-opacity:1;stroke-width:.264583" id="path136" d="m 135.00577,81.644405 q 0,0.9144 0.7493,0.9144 0.2921,0 0.5334,-0.127 0.254,-0.1397 0.254,-0.3556 v -1.193799 q 0,-0.1905 -0.2921,-0.0889 l -0.6096,0.2413 q -0.635,0.203199 -0.635,0.609599 z m 0.9398,-3.797299 q 0.7747,0 1.2192,0.381 0.4445,0.381 0.4445,0.9144 v 3.009899 q 0,0.1524 0.1397,0.254 0.1524,0.1016 0.3175,0.1016 0.1016,0 0.254,-0.0762 0.1651,-0.0889 0.2032,-0.0889 0.1143,0 0.1143,0.2794 0,0.3302 -0.3683,0.5588 -0.3683,0.2286 -0.7747,0.2286 -0.4953,0 -0.8763,-0.5207 -0.0635,-0.0889 -0.1016,-0.0889 -0.0254,-0.0127 -0.0889,0.0635 -0.5461,0.5461 -1.2954,0.5461 -0.4699,0 -0.8636,-0.3683 -0.3937,-0.381 -0.3937,-0.8509 0,-0.9017 0.6858,-1.193799 l 1.6637,-0.6985 q 0.2921,-0.127 0.2921,-0.2921 v -0.6223 q 0,-0.3175 -0.2921,-0.5461 -0.2921,-0.2286 -0.635,-0.2286 -0.2286,0 -0.4064,0.1016 -0.1778,0.0889 -0.1778,0.2667 0,0.4064 -0.127,0.4953 -0.0762,0.0508 -0.3556,0.1651 -0.2667,0.1016 -0.3556,0.1016 -0.1016,0 -0.1016,-0.4318 0,-0.2159 0.1397,-0.4699 0.1397,-0.254 0.3429,-0.3937 0.8763,-0.5969 1.397,-0.5969 z"/><path style="font-style:normal;font-variant:normal;font-weight:400;font-stretch:normal;font-family:'EB Garamond';-inkscape-font-specification:'EB Garamond';fill:#491d00;fill-opacity:1;stroke-width:.264583" id="path138" d="m 140.55565,83.257305 q -0.1143,0 -0.5588,0.0381 -0.4318,0.0381 -0.5715,0.0381 -0.381,0 -0.381,-0.254 0,-0.1778 0.4953,-0.3302 0.2413,-0.0762 0.3556,-0.3048 0.127,-0.2413 0.127,-0.508 v -2.463799 q 0,-0.1651 -0.1524,-0.3683 -0.1524,-0.2032 -0.3683,-0.2794 -0.2667,-0.1016 -0.2667,-0.2667 0,-0.1524 0.3683,-0.3175 0.127,-0.0635 0.6731,-0.2794 0.5588,-0.2159 0.6477,-0.2159 0.1016,0 0.127,0.0762 0.0254,0.0762 0.0254,0.2794 v 0.3175 q 0.0254,0.1016 0.1016,0.0635 0.0762,-0.0508 0.1524,-0.1397 0.1651,-0.1778 0.508,-0.3302 0.3429,-0.1651 0.6096,-0.1651 0.7239,0 0.7239,0.5334 0,0.3429 -0.381,0.7239 -0.1143,0.1143 -0.2032,0.1143 -0.0889,0 -0.3937,-0.1778 -0.2921,-0.1778 -0.4318,-0.1778 -0.2286,0 -0.4445,0.1778 -0.2159,0.1778 -0.2159,0.4191 l -0.0254,2.476499 q 0,0.2413 0.1778,0.4953 0.1905,0.2413 0.4445,0.3175 0.5207,0.1524 0.5207,0.3302 0,0.254 -0.4318,0.254 -0.1524,0 -0.6477,-0.0381 -0.4953,-0.0381 -0.5842,-0.0381 z"/><path style="font-style:normal;font-variant:normal;font-weight:400;font-stretch:normal;font-family:'EB Garamond';-inkscape-font-specification:'EB Garamond';fill:#491d00;fill-opacity:1;stroke-width:.264583" id="path140" d="m 145.64833,83.409705 q -0.6223,0 -1.0033,-0.3429 -0.3683,-0.3429 -0.3683,-1.1049 v -3.022599 q 0,-0.0127 0,-0.0508 0.0127,-0.0381 0,-0.0381 0,-0.0127 -0.0254,-0.0381 -0.0127,-0.0254 -0.0635,-0.0254 -0.0381,-0.0127 -0.1143,-0.0127 -0.0762,-0.0127 -0.1905,-0.0127 -0.1143,0 -0.2667,-0.0381 -0.1397,-0.0508 -0.1397,-0.1397 0,-0.0762 0.1143,-0.1905 0.127,-0.127 0.4064,-0.3429 0.2794,-0.2159 0.3302,-0.2667 0.0381,-0.0254 0.1778,-0.1524 0.1397,-0.1397 0.2413,-0.2286 0.1016,-0.0889 0.2159,-0.1651 0.127,-0.0889 0.1905,-0.0889 0.1778,0 0.1778,0.3175 v 0.3556 q 0,0.1905 0.2794,0.1905 h 1.2319 q 0.254,0 0.254,0.2921 0,0.1143 -0.1016,0.2921 -0.0889,0.1651 -0.2032,0.1651 h -1.2573 q -0.2032,0 -0.2032,0.2413 v 2.374899 q 0,0.6477 0.1524,0.9144 0.1651,0.254 0.508,0.254 0.2794,0 0.5842,-0.1143 0.3048,-0.1143 0.3302,-0.1143 0.1905,0 0.1905,0.1778 0,0.254 -0.4699,0.5842 -0.4572,0.3302 -0.9779,0.3302 z"/><path style="font-style:normal;font-variant:normal;font-weight:400;font-stretch:normal;font-family:'EB Garamond';-inkscape-font-specification:'EB Garamond';fill:#491d00;fill-opacity:1;stroke-width:.264583" id="path142" d="m 152.7603,76.526306 v 5.295899 q 0,0.3556 0.1397,0.5715 0.1397,0.2032 0.4572,0.3429 0.0762,0.0381 0.2794,0.1143 0.2159,0.0635 0.3175,0.127 0.1016,0.0508 0.1016,0.1397 0,0.1778 -0.4064,0.2159 -0.0254,0 -0.2921,-0.0254 -0.254,-0.0127 -0.6223,-0.0254 -0.3556,-0.0254 -0.6223,-0.0254 -0.2413,0 -0.5715,0.0254 -0.3175,0.0127 -0.5588,0.0254 -0.2413,0.0254 -0.2667,0.0254 -0.4191,-0.0381 -0.4191,-0.2159 0,-0.0889 0.1016,-0.1397 0.1016,-0.0635 0.3048,-0.127 0.2159,-0.0762 0.2921,-0.1143 0.3175,-0.1397 0.4572,-0.3429 0.1397,-0.2159 0.1397,-0.5715 v -4.635499 q 0,-0.1143 -0.0127,-0.2032 0,-0.1016 -0.0381,-0.1778 -0.0381,-0.0889 -0.0635,-0.1397 -0.0127,-0.0508 -0.0889,-0.1016 -0.0762,-0.0508 -0.1016,-0.0762 -0.0254,-0.0254 -0.1524,-0.0635 -0.1143,-0.0508 -0.1651,-0.0635 -0.0381,-0.0127 -0.2032,-0.0508 -0.1524,-0.0508 -0.2159,-0.0635 -0.2032,-0.0635 -0.2032,-0.2159 0,-0.2032 0.4445,-0.2286 1.6002,-0.127 2.7686,-0.127 1.0795,0 1.8923,0.4826 0.8128,0.4699 0.8128,1.3589 0,1.3081 -1.5494,2.1463 -0.4699,0.254 -0.8128,0.254 -0.2286,0 -0.2286,-0.2159 0,-0.0508 0.0508,-0.0889 0.0508,-0.0508 0.2032,-0.1524 0.1524,-0.1016 0.2921,-0.2159 0.7747,-0.6604 0.7747,-1.5367 0,-0.6223 -0.4826,-1.0414 -0.4699,-0.4318 -1.1176,-0.4318 -0.635,0 -0.635,0.2921 z"/><path style="font-style:normal;font-variant:normal;font-weight:400;font-stretch:normal;font-family:'EB Garamond';-inkscape-font-specification:'EB Garamond';fill:#491d00;fill-opacity:1;stroke-width:.264583" id="path144" d="m 158.24669,81.644405 q 0,0.9144 0.7493,0.9144 0.2921,0 0.5334,-0.127 0.254,-0.1397 0.254,-0.3556 v -1.193799 q 0,-0.1905 -0.2921,-0.0889 l -0.6096,0.2413 q -0.635,0.203199 -0.635,0.609599 z m 0.9398,-3.797299 q 0.7747,0 1.2192,0.381 0.4445,0.381 0.4445,0.9144 v 3.009899 q 0,0.1524 0.1397,0.254 0.1524,0.1016 0.3175,0.1016 0.1016,0 0.254,-0.0762 0.1651,-0.0889 0.2032,-0.0889 0.1143,0 0.1143,0.2794 0,0.3302 -0.3683,0.5588 -0.3683,0.2286 -0.7747,0.2286 -0.4953,0 -0.8763,-0.5207 -0.0635,-0.0889 -0.1016,-0.0889 -0.0254,-0.0127 -0.0889,0.0635 -0.5461,0.5461 -1.2954,0.5461 -0.4699,0 -0.8636,-0.3683 -0.3937,-0.381 -0.3937,-0.8509 0,-0.9017 0.6858,-1.193799 l 1.6637,-0.6985 q 0.2921,-0.127 0.2921,-0.2921 v -0.6223 q 0,-0.3175 -0.2921,-0.5461 -0.2921,-0.2286 -0.635,-0.2286 -0.2286,0 -0.4064,0.1016 -0.1778,0.0889 -0.1778,0.2667 0,0.4064 -0.127,0.4953 -0.0762,0.0508 -0.3556,0.1651 -0.2667,0.1016 -0.3556,0.1016 -0.1016,0 -0.1016,-0.4318 0,-0.2159 0.1397,-0.4699 0.1397,-0.254 0.3429,-0.3937 0.8763,-0.5969 1.397,-0.5969 z"/><path style="font-style:normal;font-variant:normal;font-weight:400;font-stretch:normal;font-family:'EB Garamond';-inkscape-font-specification:'EB Garamond';fill:#491d00;fill-opacity:1;stroke-width:.264583" id="path146" d="m 163.44097,81.644405 q 0,0.9144 0.7493,0.9144 0.2921,0 0.5334,-0.127 0.254,-0.1397 0.254,-0.3556 v -1.193799 q 0,-0.1905 -0.2921,-0.0889 l -0.6096,0.2413 q -0.635,0.203199 -0.635,0.609599 z m 0.9398,-3.797299 q 0.7747,0 1.2192,0.381 0.4445,0.381 0.4445,0.9144 v 3.009899 q 0,0.1524 0.1397,0.254 0.1524,0.1016 0.3175,0.1016 0.1016,0 0.254,-0.0762 0.1651,-0.0889 0.2032,-0.0889 0.1143,0 0.1143,0.2794 0,0.3302 -0.3683,0.5588 -0.3683,0.2286 -0.7747,0.2286 -0.4953,0 -0.8763,-0.5207 -0.0635,-0.0889 -0.1016,-0.0889 -0.0254,-0.0127 -0.0889,0.0635 -0.5461,0.5461 -1.2954,0.5461 -0.4699,0 -0.8636,-0.3683 -0.3937,-0.381 -0.3937,-0.8509 0,-0.9017 0.6858,-1.193799 l 1.6637,-0.6985 q 0.2921,-0.127 0.2921,-0.2921 v -0.6223 q 0,-0.3175 -0.2921,-0.5461 -0.2921,-0.2286 -0.635,-0.2286 -0.2286,0 -0.4064,0.1016 -0.1778,0.0889 -0.1778,0.2667 0,0.4064 -0.127,0.4953 -0.0762,0.0508 -0.3556,0.1651 -0.2667,0.1016 -0.3556,0.1016 -0.1016,0 -0.1016,-0.4318 0,-0.2159 0.1397,-0.4699 0.1397,-0.254 0.3429,-0.3937 0.8763,-0.5969 1.397,-0.5969 z"/><path style="font-style:normal;font-variant:normal;font-weight:400;font-stretch:normal;font-family:'EB Garamond';-inkscape-font-specification:'EB Garamond';fill:#491d00;fill-opacity:1;stroke-width:.264583" id="path148" d="m 170.17196,75.675406 q 0.6731,0 1.2827,0.3302 0.3556,0.1905 0.381,0.3683 0.0508,0.2667 0.0508,0.7239 0,0.3429 -0.254,0.3429 -0.2667,0 -0.508,-0.5842 -0.0889,-0.2159 -0.3937,-0.3302 -0.3048,-0.127 -0.6096,-0.127 -0.4191,0 -0.7366,0.2921 -0.3048,0.2921 -0.3048,0.7112 0,0.5207 0.6477,1.0668 l 1.7907,1.5113 q 0.6096,0.508 0.6096,1.295399 0,0.9017 -0.7874,1.5367 -0.7747,0.635 -1.7653,0.635 -0.7239,0 -1.3335,-0.2794 -0.3683,-0.1651 -0.4826,-0.2413 -0.1016,-0.0889 -0.1016,-0.2159 0,-0.381 0.0762,-0.8763 0.0508,-0.3048 0.2413,-0.3048 0.254,0 0.4318,0.5969 0.1143,0.3556 0.4699,0.5969 0.3683,0.2286 0.9017,0.2286 0.4699,0 0.7874,-0.3683 0.3175,-0.3683 0.3175,-0.8509 0,-0.584199 -0.508,-1.015999 l -1.7145,-1.4478 q -0.7493,-0.6223 -0.7493,-1.4605 0,-0.889 0.6604,-1.5113 0.6604,-0.6223 1.6002,-0.6223 z"/><path style="font-style:normal;font-variant:normal;font-weight:400;font-stretch:normal;font-family:'EB Garamond';-inkscape-font-specification:'EB Garamond';fill:#491d00;fill-opacity:1;stroke-width:.264583" id="path150" d="m 176.45842,81.644405 q 0,0.9144 0.7493,0.9144 0.2921,0 0.5334,-0.127 0.254,-0.1397 0.254,-0.3556 v -1.193799 q 0,-0.1905 -0.2921,-0.0889 l -0.6096,0.2413 q -0.635,0.203199 -0.635,0.609599 z m 0.9398,-3.797299 q 0.7747,0 1.2192,0.381 0.4445,0.381 0.4445,0.9144 v 3.009899 q 0,0.1524 0.1397,0.254 0.1524,0.1016 0.3175,0.1016 0.1016,0 0.254,-0.0762 0.1651,-0.0889 0.2032,-0.0889 0.1143,0 0.1143,0.2794 0,0.3302 -0.3683,0.5588 -0.3683,0.2286 -0.7747,0.2286 -0.4953,0 -0.8763,-0.5207 -0.0635,-0.0889 -0.1016,-0.0889 -0.0254,-0.0127 -0.0889,0.0635 -0.5461,0.5461 -1.2954,0.5461 -0.4699,0 -0.8636,-0.3683 -0.3937,-0.381 -0.3937,-0.8509 0,-0.9017 0.6858,-1.193799 l 1.6637,-0.6985 q 0.2921,-0.127 0.2921,-0.2921 v -0.6223 q 0,-0.3175 -0.2921,-0.5461 -0.2921,-0.2286 -0.635,-0.2286 -0.2286,0 -0.4064,0.1016 -0.1778,0.0889 -0.1778,0.2667 0,0.4064 -0.127,0.4953 -0.0762,0.0508 -0.3556,0.1651 -0.2667,0.1016 -0.3556,0.1016 -0.1016,0 -0.1016,-0.4318 0,-0.2159 0.1397,-0.4699 0.1397,-0.254 0.3429,-0.3937 0.8763,-0.5969 1.397,-0.5969 z"/><path style="font-style:normal;font-variant:normal;font-weight:400;font-stretch:normal;font-family:'EB Garamond';-inkscape-font-specification:'EB Garamond';fill:#491d00;fill-opacity:1;stroke-width:.264583" id="path152" d="m 182.3131,79.091706 v 2.641599 q 0,0.4826 0.3683,0.7747 0.381,0.2921 1.0922,0.2921 0.6604,0 1.0033,-0.5461 0.3429,-0.5588 0.3429,-1.384299 0,-0.9398 -0.4699,-1.651 -0.4699,-0.7112 -1.2827,-0.7112 -0.3302,0 -0.5969,0.1397 -0.254,0.127 -0.3556,0.254 -0.1016,0.127 -0.1016,0.1905 z m -1.0541,-2.9718 q 0,-0.4064 -0.508,-0.5969 -0.2921,-0.1016 -0.2921,-0.2921 0,-0.2159 0.3683,-0.2667 0.2159,-0.0381 0.5207,-0.1143 0.3175,-0.0762 0.5334,-0.127 0.2159,-0.0635 0.2667,-0.0635 0.1016,0 0.127,0.0762 0.0381,0.0762 0.0381,0.2794 v 3.1623 q 0,0.254 0.2667,0.0635 0.5588,-0.3937 1.4605,-0.3937 0.9398,0 1.5875,0.8128 0.6604,0.8128 0.6604,1.8034 0,1.193799 -0.8636,2.070099 -0.8509,0.8763 -2.0447,0.8763 -0.5842,0 -1.1049,-0.1397 -0.508,-0.1524 -0.762,-0.3175 -0.254,-0.1778 -0.254,-0.2794 z"/><path style="font-style:normal;font-variant:normal;font-weight:400;font-stretch:normal;font-family:'EB Garamond';-inkscape-font-specification:'EB Garamond';fill:#491d00;fill-opacity:1;stroke-width:.264583" id="path154" d="m 188.65038,77.847106 q 0.3429,0 1.0668,0.3048 0.0889,0.0381 0.1397,0.2032 0.0635,0.2286 0.0635,0.6223 0,0.2794 -0.1524,0.2794 -0.2794,0 -0.381,-0.3175 -0.0635,-0.2286 -0.3175,-0.3683 -0.2413,-0.1397 -0.5461,-0.1397 -0.2413,0 -0.4191,0.1651 -0.1651,0.1524 -0.1651,0.381 0,0.1651 0.0889,0.3175 0.0889,0.1524 0.1778,0.2413 0.0889,0.0762 0.2794,0.2159 l 1.0414,0.7874 q 0.6096,0.4572 0.6096,1.015999 0,0.8001 -0.5588,1.3335 -0.5588,0.5207 -1.3589,0.5207 -0.5842,0 -0.8382,-0.1016 -0.127,-0.0508 -0.1651,-0.0635 -0.0254,-0.0127 -0.0762,-0.0635 -0.0508,-0.0508 -0.0762,-0.127 -0.2159,-0.5588 -0.2159,-0.8001 0,-0.4064 0.1397,-0.4064 0.3302,0 0.5588,0.508 0.2286,0.4826 0.9779,0.4826 0.3048,0 0.5207,-0.1778 0.2286,-0.1778 0.2286,-0.4572 0,-0.0889 -0.0127,-0.1651 0,-0.0762 -0.0254,-0.1524 -0.0254,-0.0762 -0.0381,-0.1143 -0.0127,-0.0508 -0.0635,-0.1016 -0.0508,-0.0635 -0.0635,-0.0889 -0.0127,-0.0254 -0.0889,-0.0762 -0.0762,-0.0635 -0.0889,-0.0762 0,-0.0127 -0.1016,-0.0762 l -0.0889,-0.0635 -0.6096,-0.431799 q -0.3556,-0.254 -0.5461,-0.4191 -0.1905,-0.1651 -0.3556,-0.4318 -0.1651,-0.2667 -0.1651,-0.5715 0,-0.6477 0.4826,-1.1176 0.4826,-0.4699 1.143,-0.4699 z"/><path style="font-style:normal;font-variant:normal;font-weight:400;font-stretch:normal;font-family:'EB Garamond';-inkscape-font-specification:'EB Garamond';fill:#491d00;fill-opacity:1;stroke-width:.264583" id="path156" d="m 192.76517,83.409705 q -0.6223,0 -1.0033,-0.3429 -0.3683,-0.3429 -0.3683,-1.1049 v -3.022599 q 0,-0.0127 0,-0.0508 0.0127,-0.0381 0,-0.0381 0,-0.0127 -0.0254,-0.0381 -0.0127,-0.0254 -0.0635,-0.0254 -0.0381,-0.0127 -0.1143,-0.0127 -0.0762,-0.0127 -0.1905,-0.0127 -0.1143,0 -0.2667,-0.0381 -0.1397,-0.0508 -0.1397,-0.1397 0,-0.0762 0.1143,-0.1905 0.127,-0.127 0.4064,-0.3429 0.2794,-0.2159 0.3302,-0.2667 0.0381,-0.0254 0.1778,-0.1524 0.1397,-0.1397 0.2413,-0.2286 0.1016,-0.0889 0.2159,-0.1651 0.127,-0.0889 0.1905,-0.0889 0.1778,0 0.1778,0.3175 v 0.3556 q 0,0.1905 0.2794,0.1905 h 1.2319 q 0.254,0 0.254,0.2921 0,0.1143 -0.1016,0.2921 -0.0889,0.1651 -0.2032,0.1651 h -1.2573 q -0.2032,0 -0.2032,0.2413 v 2.374899 q 0,0.6477 0.1524,0.9144 0.1651,0.254 0.508,0.254 0.2794,0 0.5842,-0.1143 0.3048,-0.1143 0.3302,-0.1143 0.1905,0 0.1905,0.1778 0,0.254 -0.4699,0.5842 -0.4572,0.3302 -0.9779,0.3302 z"/><path style="font-style:normal;font-variant:normal;font-weight:400;font-stretch:normal;font-family:'EB Garamond';-inkscape-font-specification:'EB Garamond';fill:#491d00;fill-opacity:1;stroke-width:.264583" id="path158" d="m 196.29575,83.257305 q -0.1143,0 -0.5588,0.0381 -0.4318,0.0381 -0.5715,0.0381 -0.381,0 -0.381,-0.254 0,-0.1778 0.4953,-0.3302 0.2413,-0.0762 0.3556,-0.3048 0.127,-0.2413 0.127,-0.508 v -2.463799 q 0,-0.1651 -0.1524,-0.3683 -0.1524,-0.2032 -0.3683,-0.2794 -0.2667,-0.1016 -0.2667,-0.2667 0,-0.1524 0.3683,-0.3175 0.127,-0.0635 0.6731,-0.2794 0.5588,-0.2159 0.6477,-0.2159 0.1016,0 0.127,0.0762 0.0254,0.0762 0.0254,0.2794 v 0.3175 q 0.0254,0.1016 0.1016,0.0635 0.0762,-0.0508 0.1524,-0.1397 0.1651,-0.1778 0.508,-0.3302 0.3429,-0.1651 0.6096,-0.1651 0.7239,0 0.7239,0.5334 0,0.3429 -0.381,0.7239 -0.1143,0.1143 -0.2032,0.1143 -0.0889,0 -0.3937,-0.1778 -0.2921,-0.1778 -0.4318,-0.1778 -0.2286,0 -0.4445,0.1778 -0.2159,0.1778 -0.2159,0.4191 l -0.0254,2.476499 q 0,0.2413 0.1778,0.4953 0.1905,0.2413 0.4445,0.3175 0.5207,0.1524 0.5207,0.3302 0,0.254 -0.4318,0.254 -0.1524,0 -0.6477,-0.0381 -0.4953,-0.0381 -0.5842,-0.0381 z"/><path style="font-style:normal;font-variant:normal;font-weight:400;font-stretch:normal;font-family:'EB Garamond';-inkscape-font-specification:'EB Garamond';fill:#491d00;fill-opacity:1;stroke-width:.264583" id="path160" d="m 200.43593,81.644405 q 0,0.9144 0.7493,0.9144 0.2921,0 0.5334,-0.127 0.254,-0.1397 0.254,-0.3556 v -1.193799 q 0,-0.1905 -0.2921,-0.0889 l -0.6096,0.2413 q -0.635,0.203199 -0.635,0.609599 z m 0.9398,-3.797299 q 0.7747,0 1.2192,0.381 0.4445,0.381 0.4445,0.9144 v 3.009899 q 0,0.1524 0.1397,0.254 0.1524,0.1016 0.3175,0.1016 0.1016,0 0.254,-0.0762 0.1651,-0.0889 0.2032,-0.0889 0.1143,0 0.1143,0.2794 0,0.3302 -0.3683,0.5588 -0.3683,0.2286 -0.7747,0.2286 -0.4953,0 -0.8763,-0.5207 -0.0635,-0.0889 -0.1016,-0.0889 -0.0254,-0.0127 -0.0889,0.0635 -0.5461,0.5461 -1.2954,0.5461 -0.4699,0 -0.8636,-0.3683 -0.3937,-0.381 -0.3937,-0.8509 0,-0.9017 0.6858,-1.193799 l 1.6637,-0.6985 q 0.2921,-0.127 0.2921,-0.2921 v -0.6223 q 0,-0.3175 -0.2921,-0.5461 -0.2921,-0.2286 -0.635,-0.2286 -0.2286,0 -0.4064,0.1016 -0.1778,0.0889 -0.1778,0.2667 0,0.4064 -0.127,0.4953 -0.0762,0.0508 -0.3556,0.1651 -0.2667,0.1016 -0.3556,0.1016 -0.1016,0 -0.1016,-0.4318 0,-0.2159 0.1397,-0.4699 0.1397,-0.254 0.3429,-0.3937 0.8763,-0.5969 1.397,-0.5969 z"/><path style="font-style:normal;font-variant:normal;font-weight:400;font-stretch:normal;font-family:'EB Garamond';-inkscape-font-specification:'EB Garamond';fill:#491d00;fill-opacity:1;stroke-width:.264583" id="path162" d="m 206.7986,83.409705 q -0.9906,0 -1.6383,-0.762 -0.6477,-0.7747 -0.6477,-1.816099 0,-1.1811 0.7493,-2.0828 0.7493,-0.9017 1.8161,-0.9017 0.9652,0 1.4859,0.4191 0.4191,0.3556 0.4191,0.5842 0,0.2286 -0.1524,0.3683 -0.1524,0.127 -0.381,0.127 -0.3683,0 -0.8255,-0.4572 -0.0254,-0.0254 -0.1143,-0.1143 -0.0889,-0.1016 -0.1397,-0.1397 -0.0381,-0.0381 -0.1143,-0.0889 -0.0635,-0.0635 -0.1397,-0.0762 -0.0635,-0.0254 -0.1397,-0.0254 -0.5461,0 -0.9271,0.5715 -0.3683,0.5588 -0.3683,1.2192 0,0.9271 0.4064,1.625599 0.4064,0.6858 1.1684,0.6858 0.3429,0 0.8382,-0.1524 l 0.4953,-0.1397 q 0.1905,0 0.1905,0.1778 0,0.3175 -0.5715,0.6477 -0.5588,0.3302 -1.4097,0.3302 z"/><path style="font-style:normal;font-variant:normal;font-weight:400;font-stretch:normal;font-family:'EB Garamond';-inkscape-font-specification:'EB Garamond';fill:#491d00;fill-opacity:1;stroke-width:.264583" id="path164" d="m 211.56108,83.409705 q -0.6223,0 -1.0033,-0.3429 -0.3683,-0.3429 -0.3683,-1.1049 v -3.022599 q 0,-0.0127 0,-0.0508 0.0127,-0.0381 0,-0.0381 0,-0.0127 -0.0254,-0.0381 -0.0127,-0.0254 -0.0635,-0.0254 -0.0381,-0.0127 -0.1143,-0.0127 -0.0762,-0.0127 -0.1905,-0.0127 -0.1143,0 -0.2667,-0.0381 -0.1397,-0.0508 -0.1397,-0.1397 0,-0.0762 0.1143,-0.1905 0.127,-0.127 0.4064,-0.3429 0.2794,-0.2159 0.3302,-0.2667 0.0381,-0.0254 0.1778,-0.1524 0.1397,-0.1397 0.2413,-0.2286 0.1016,-0.0889 0.2159,-0.1651 0.127,-0.0889 0.1905,-0.0889 0.1778,0 0.1778,0.3175 v 0.3556 q 0,0.1905 0.2794,0.1905 h 1.2319 q 0.254,0 0.254,0.2921 0,0.1143 -0.1016,0.2921 -0.0889,0.1651 -0.2032,0.1651 h -1.2573 q -0.2032,0 -0.2032,0.2413 v 2.374899 q 0,0.6477 0.1524,0.9144 0.1651,0.254 0.508,0.254 0.2794,0 0.5842,-0.1143 0.3048,-0.1143 0.3302,-0.1143 0.1905,0 0.1905,0.1778 0,0.254 -0.4699,0.5842 -0.4572,0.3302 -0.9779,0.3302 z"/><path style="font-style:normal;font-variant:normal;font-weight:400;font-stretch:normal;font-family:'EB Garamond';-inkscape-font-specification:'EB Garamond';fill:#491d00;fill-opacity:1;stroke-width:.264583" id="path166" d="m 214.52017,75.319806 q 0.2032,-0.2032 0.4953,-0.2032 0.2921,0 0.4953,0.2032 0.2032,0.2032 0.2032,0.4826 0,0.2921 -0.2032,0.508 -0.2032,0.2032 -0.4953,0.2032 -0.2921,0 -0.4953,-0.2032 -0.2032,-0.2159 -0.2032,-0.508 0,-0.2794 0.2032,-0.4826 z m 0.0381,4.1529 q 0,-0.1651 -0.1524,-0.3683 -0.1524,-0.2032 -0.3683,-0.2794 -0.2667,-0.1016 -0.2667,-0.2667 0,-0.1524 0.3683,-0.3175 0.127,-0.0635 0.6731,-0.2794 0.5588,-0.2159 0.6477,-0.2159 0.1016,0 0.127,0.0762 0.0254,0.0762 0.0254,0.2921 v 3.822699 q 0,0.2667 0.1143,0.508 0.127,0.2286 0.3683,0.3048 0.5461,0.1651 0.5461,0.3302 0,0.254 -0.4318,0.254 -0.1524,0 -0.5969,-0.0381 -0.4318,-0.0381 -0.5207,-0.0381 -0.127,0 -0.5588,0.0381 -0.4318,0.0381 -0.5715,0.0381 -0.4445,0 -0.4445,-0.254 0,-0.1651 0.5588,-0.3302 0.2413,-0.0762 0.3556,-0.3048 0.127,-0.2413 0.127,-0.508 z"/><path style="font-style:normal;font-variant:normal;font-weight:400;font-stretch:normal;font-family:'EB Garamond';-inkscape-font-specification:'EB Garamond';fill:#491d00;fill-opacity:1;stroke-width:.264583" id="path168" d="m 218.38096,80.298206 q 0,0.990599 0.4572,1.752599 0.4699,0.762 1.2954,0.762 0.6477,0 0.9906,-0.635 0.3429,-0.635 0.3429,-1.447799 0,-0.9271 -0.4572,-1.6383 -0.4572,-0.7112 -1.2319,-0.7112 -0.6477,0 -1.0287,0.5842 -0.3683,0.5842 -0.3683,1.3335 z m 1.4859,-2.4511 q 1.143,0 1.9939,0.7366 0.8636,0.7239 0.8636,1.8034 0,1.231899 -0.8636,2.133599 -0.8509,0.889 -2.0574,0.889 -1.143,0 -1.9177,-0.8382 -0.7747,-0.8382 -0.7747,-1.993899 0,-1.1176 0.8509,-1.9177 0.8509,-0.8128 1.905,-0.8128 z"/><path style="font-style:normal;font-variant:normal;font-weight:400;font-stretch:normal;font-family:'EB Garamond';-inkscape-font-specification:'EB Garamond';fill:#491d00;fill-opacity:1;stroke-width:.264583" id="path170" d="m 228.71876,81.911105 q 0,0.2794 0.1143,0.5207 0.127,0.2413 0.3683,0.3175 0.4572,0.1397 0.4572,0.3302 0,0.0762 -0.0127,0.127 -0.0127,0.0381 -0.1016,0.0889 -0.0762,0.0381 -0.2286,0.0381 -0.1524,0 -0.5969,-0.0381 -0.4318,-0.0381 -0.5207,-0.0381 -0.127,0 -0.4699,0.0381 -0.3302,0.0381 -0.4699,0.0381 -0.381,0 -0.381,-0.254 0,-0.1778 0.4953,-0.3302 0.2921,-0.0762 0.2921,-0.8128 v -1.943099 q 0,-0.5842 -0.3175,-1.0287 -0.3048,-0.4572 -0.7874,-0.4572 -0.5715,0 -0.9144,0.3556 -0.3302,0.3429 -0.3302,1.0414 l -0.0127,2.031999 q 0,0.7239 0.2921,0.8128 0.4826,0.1397 0.4826,0.3302 0,0.254 -0.3683,0.254 -0.1524,0 -0.4953,-0.0381 -0.3429,-0.0381 -0.4318,-0.0381 -0.127,0 -0.5588,0.0381 -0.4318,0.0381 -0.5715,0.0381 -0.381,0 -0.381,-0.254 0,-0.1778 0.4953,-0.3302 0.2413,-0.0762 0.3556,-0.3048 0.127,-0.2413 0.127,-0.508 v -2.463799 q 0,-0.1651 -0.1524,-0.3683 -0.1524,-0.2032 -0.3683,-0.2794 -0.2667,-0.1016 -0.2667,-0.2667 0,-0.1524 0.3683,-0.3175 0.1524,-0.0762 0.6858,-0.2794 0.5461,-0.2159 0.635,-0.2159 0.1016,0 0.127,0.0762 0.0254,0.0762 0.0254,0.2794 v 0.3175 q 0,0.1651 0.2032,-0.0254 0.0381,-0.0381 0.0508,-0.0508 0.6096,-0.4953 1.5748,-0.4953 0.6604,0 1.1176,0.5334 0.4699,0.5207 0.4699,1.2319 z"/></g></g></svg>